<?xml version="1.0" encoding="utf-8"?>
<!-- Generator: Adobe Illustrator 19.0.0, SVG Export Plug-In . SVG Version: 6.00 Build 0)  -->
<svg version="1.1" id="Layer_1" xmlns="http://www.w3.org/2000/svg" xmlns:xlink="http://www.w3.org/1999/xlink" x="0px" y="0px"
	 viewBox="-293 385 24 24" style="enable-background:new -293 385 24 24;" xml:space="preserve">
<style type="text/css">
	.st0{fill:#FFFFFF;}
</style>
<g>
	<path class="st0" d="M-270,385h-22c-0.6,0-1,0.4-1,1v22c0,0.6,0.4,1,1,1h22c0.6,0,1-0.4,1-1v-22C-269,385.4-269.4,385-270,385z
		 M-283,390c1.1,0,2,0.9,2,2s-0.9,2-2,2s-2-0.9-2-2S-284.1,390-283,390z M-274.8,404h-12.3c-0.8,0-1.3-0.9-0.8-1.6l2.2-3.4
		c0.4-0.5,1.1-0.6,1.5-0.2l2.2,2.2l3.1-3.9c0.4-0.5,1.3-0.5,1.6,0.1l3.3,5.3C-273.5,403.1-274,404-274.8,404z"/>
</g>
<circle cx="-281" cy="397" r="12"/>
</svg>
